<svg width="80" height="80" viewBox="0 0 80 80" fill="none" xmlns="http://www.w3.org/2000/svg">
<path fill-rule="evenodd" clip-rule="evenodd" d="M32.9966 1.24347C31.7477 1.62731 30.6295 2.49773 29.9323 3.62858C29.5573 4.23686 29.1961 5.59786 29.1961 6.40248V7.1243L27.6913 7.21234C22.4203 7.52081 17.9992 10.9909 16.4309 16.051L16 17.4412V43.6232V69.8052L16.4309 71.1954C17.6707 75.196 20.8002 78.3279 24.7974 79.5687L26.1865 80H40H53.8135L55.2026 79.5687C60.3062 77.9844 63.9248 73.3237 63.9824 68.2606C63.998 66.8861 63.9597 66.6509 63.6338 66.1263C63.4323 65.8019 62.9858 65.3501 62.6418 65.1223C62.1206 64.7771 61.8448 64.7079 60.9904 64.7079C60.1359 64.7079 59.8601 64.7771 59.3389 65.1223C58.4339 65.7218 58.0798 66.3951 57.8952 67.8682C57.5263 70.8124 56.1345 72.6874 53.6822 73.5438C52.9418 73.8024 52.0015 73.8214 39.9228 73.8214H26.9582L26.0704 73.4625C24.3551 72.7694 23.0563 71.4098 22.451 69.6738C22.1884 68.9209 22.1736 67.5293 22.1736 43.6232C22.1736 19.7171 22.1884 18.3256 22.451 17.5727C23.0591 15.8288 24.3728 14.4582 26.0704 13.7968C26.8497 13.4931 27.3448 13.4398 30.1222 13.3607C33.1016 13.2759 33.3206 13.2493 33.8753 12.9041C34.1994 12.7025 34.6509 12.2558 34.8785 11.9117C35.2665 11.3252 35.296 11.1563 35.3463 9.22751L35.4 7.16925H40H44.6L44.6537 9.22751C44.704 11.1563 44.7335 11.3252 45.1215 11.9117C45.3491 12.2558 45.8006 12.7025 46.1247 12.9041C46.6794 13.2493 46.8984 13.2759 49.8778 13.3607C52.6552 13.4398 53.1503 13.4931 53.9296 13.7968C55.579 14.4395 56.7756 15.6459 57.4865 17.3829L57.8264 18.2136L57.9035 35.6682L57.9807 53.1229L58.347 53.7125C58.5484 54.0369 58.9949 54.4887 59.3389 54.7165C59.8583 55.0605 60.1368 55.131 60.9791 55.131C62.1948 55.131 62.9462 54.7392 63.5859 53.7717L64 53.1455V35.2933V17.4412L63.5691 16.051C62.0008 10.9909 57.5797 7.52081 52.3087 7.21234L50.8039 7.1243V6.40248C50.8039 4.9522 50.1311 3.4046 49.0843 2.44722C47.5379 1.03277 47.2585 0.988596 39.9333 1.00142C34.9021 1.01007 33.6089 1.05517 32.9966 1.24347ZM32.9775 30.0366C31.0251 33.5288 29.3462 36.6027 29.2465 36.8676C28.943 37.6737 29.0119 38.4147 29.4715 39.2955C29.8194 39.962 30.058 40.2008 30.724 40.549L31.5464 40.979H34.9243C36.7821 40.979 38.3018 41.0311 38.3013 41.0949C38.3009 41.1587 37.3632 43.807 36.2177 46.9802C35.0722 50.1535 34.135 52.8361 34.135 52.9418C34.135 53.5181 35.1167 53.819 35.7823 53.4467C36.2983 53.158 50.8022 36.4946 51.0661 35.8872C51.4814 34.9315 51.0361 33.5772 50.1371 33.0623C49.9031 32.9282 48.5977 32.8461 45.8526 32.7923L41.9046 32.7151L44.6477 28.3128C46.1563 25.8915 47.3946 23.8583 47.3996 23.7947C47.4043 23.731 44.9601 23.6807 41.9678 23.6831L36.5273 23.6873L32.9775 30.0366Z" fill="#33D799"/>
<path d="M27.3029 68C27.2114 68 27.1291 67.968 27.056 67.904C26.992 67.8309 26.96 67.7486 26.96 67.6571V58.7429C26.96 58.6423 26.992 58.56 27.056 58.496C27.1291 58.432 27.2114 58.4 27.3029 58.4H29.1131C29.2137 58.4 29.296 58.432 29.36 58.496C29.424 58.56 29.456 58.6423 29.456 58.7429V65.9291H33.6114C33.712 65.9291 33.7943 65.9657 33.8583 66.0389C33.9223 66.1029 33.9543 66.1851 33.9543 66.2857V67.6571C33.9543 67.7486 33.9223 67.8309 33.8583 67.904C33.7943 67.968 33.712 68 33.6114 68H27.3029ZM38.9448 68.1371C37.6556 68.1371 36.6408 67.8217 35.9002 67.1909C35.1596 66.56 34.7665 65.632 34.7208 64.4069C34.7116 64.1417 34.7071 63.7486 34.7071 63.2274C34.7071 62.6971 34.7116 62.2994 34.7208 62.0343C34.7665 60.8274 35.1642 59.8994 35.9139 59.2503C36.6728 58.592 37.6831 58.2629 38.9448 58.2629C40.2065 58.2629 41.2168 58.592 41.9756 59.2503C42.7345 59.8994 43.1322 60.8274 43.1688 62.0343C43.1871 62.5646 43.1962 62.9623 43.1962 63.2274C43.1962 63.4834 43.1871 63.8766 43.1688 64.4069C43.1231 65.632 42.7299 66.56 41.9894 67.1909C41.2488 67.8217 40.2339 68.1371 38.9448 68.1371ZM38.9448 66.1623C39.4476 66.1623 39.8454 66.0114 40.1379 65.7097C40.4396 65.408 40.5996 64.9463 40.6179 64.3246C40.6362 63.7943 40.6454 63.4194 40.6454 63.2C40.6454 62.9623 40.6362 62.5874 40.6179 62.0754C40.5996 61.4537 40.4396 60.992 40.1379 60.6903C39.8362 60.3886 39.4385 60.2377 38.9448 60.2377C38.4511 60.2377 38.0534 60.3886 37.7516 60.6903C37.4591 60.992 37.2991 61.4537 37.2716 62.0754C37.2625 62.3314 37.2579 62.7063 37.2579 63.2C37.2579 63.6846 37.2625 64.0594 37.2716 64.3246C37.2991 64.9463 37.4591 65.408 37.7516 65.7097C38.0442 66.0114 38.4419 66.1623 38.9448 66.1623ZM46.2147 68C46.0593 68 45.9359 67.9589 45.8445 67.8766C45.753 67.7851 45.6982 67.6754 45.6799 67.5474L44.185 58.784C44.1759 58.7566 44.1713 58.7246 44.1713 58.688C44.1713 58.6149 44.1987 58.5509 44.2536 58.496C44.3176 58.432 44.3862 58.4 44.4593 58.4H46.1599C46.4159 58.4 46.5576 58.5006 46.585 58.7017L47.4765 64.0503L48.4639 60.896C48.5645 60.6491 48.7153 60.5257 48.9165 60.5257H49.9039C50.1325 60.5257 50.2833 60.6491 50.3565 60.896L51.3439 64.0503L52.2353 58.7017C52.2627 58.5006 52.4045 58.4 52.6605 58.4H54.361C54.4433 58.4 54.5119 58.432 54.5667 58.496C54.6307 58.5509 54.6627 58.6149 54.6627 58.688L54.649 58.784L53.1542 67.5474C53.1359 67.6754 53.0765 67.7851 52.9759 67.8766C52.8845 67.9589 52.7656 68 52.6193 68H51.3165C51.1702 68 51.0559 67.9634 50.9736 67.8903C50.8913 67.8171 50.8319 67.7349 50.7953 67.6434L49.4102 63.7211L48.025 67.6434C47.9427 67.8811 47.7736 68 47.5176 68H46.2147Z" fill="#33D799"/>
</svg>
