<svg width="80" height="80" viewBox="0 0 80 80" fill="none" xmlns="http://www.w3.org/2000/svg">
<path d="M39.885 64.4714L39.5 64.8474L39.0765 64.4714C20.789 48.2648 8.7 37.5482 8.7 26.6812C8.7 19.1608 14.475 13.5204 22.175 13.5204C28.104 13.5204 33.879 17.2807 35.9195 22.3946H43.0805C45.121 17.2807 50.896 13.5204 56.825 13.5204C64.525 13.5204 70.3 19.1608 70.3 26.6812C70.3 37.5482 58.211 48.2648 39.885 64.4714ZM56.825 6C50.126 6 43.6965 9.04578 39.5 13.8213C35.3035 9.04578 28.874 6 22.175 6C10.317 6 1 15.0621 1 26.6812C1 40.8572 14.09 52.4763 33.9175 70.0365L39.5 75L45.0825 70.0365C64.91 52.4763 78 40.8572 78 26.6812C78 15.0621 68.683 6 56.825 6Z" fill="#33D799"/>
</svg>
