<svg width="80" height="80" viewBox="0 0 80 80" fill="none" xmlns="http://www.w3.org/2000/svg">
<path fill-rule="evenodd" clip-rule="evenodd" d="M37.1221 6.95321C21.8271 9.66936 8.85003 11.9714 8.2844 12.069C7.42389 12.2175 7.16244 12.3374 6.68511 12.8022C6.31692 13.1606 6.07751 13.5555 6.01035 13.9147C5.89356 14.5397 6.79365 20.0225 7.28807 21.6966C8.03869 24.2384 10.4388 26.5165 12.9859 27.1043C13.4394 27.209 13.9719 27.3399 14.1692 27.3953C14.4717 27.4801 14.6895 27.9085 15.5551 30.121C16.1201 31.5649 16.5826 32.797 16.5831 32.859C16.5835 32.921 15.7047 32.9718 14.6301 32.9718C12.3735 32.9718 11.8869 33.1138 11.2442 33.9598L10.8121 34.5285V38.6764C10.8121 41.7167 10.8652 42.985 11.0108 43.4261C11.4232 44.6756 11.826 45.6072 11.9539 45.6072C12.0267 45.6072 12.0864 45.7063 12.0864 45.8272C12.0864 46.1156 13.8584 48.0139 14.1275 48.0139C14.2417 48.0139 14.3351 48.0843 14.3351 48.1702C14.3351 48.3331 16.3638 49.3677 16.6832 49.3677C16.7837 49.3677 16.9064 49.4334 16.9559 49.5137C17.0054 49.5941 18.2857 55.8723 19.801 63.4653C21.3162 71.0584 22.6052 77.4061 22.6651 77.5716C22.8147 77.9839 23.4922 78.6998 23.7328 78.6998C23.8411 78.6998 23.9297 78.7674 23.9297 78.8502C23.9297 78.9496 30.1633 79.0004 42.3317 79C60.3186 78.9995 60.7445 78.9928 61.2136 78.7058C61.4776 78.5444 61.8017 78.2026 61.9338 77.9463C62.0659 77.6901 63.2121 72.2888 64.4811 65.9436C65.75 59.5984 67.0135 53.2956 67.2886 51.9376L67.7889 49.4685L68.5464 49.21C70.4527 48.5599 72.1508 47.0216 73.105 45.0807C73.8842 43.4954 73.9986 42.6409 74 38.3969C74.001 35.1436 73.9773 34.8224 73.6923 34.2317C73.4681 33.7669 73.2087 33.5067 72.7455 33.2817C72.15 32.9924 71.8401 32.9718 68.093 32.9718H64.0786L64.1627 32.2573C64.2089 31.8643 64.2853 28.8691 64.3327 25.6012C64.3801 22.3333 64.4561 19.4043 64.5014 19.0922C64.5655 18.6513 64.6877 18.4711 65.0495 18.2834C65.6939 17.949 66.9552 16.9903 66.9552 16.835C66.9552 16.7646 67.1576 16.5361 67.4049 16.3273C67.6523 16.1184 67.8547 15.852 67.8547 15.7352C67.8547 15.6185 67.9121 15.523 67.9824 15.523C68.2028 15.523 69.0246 13.5355 69.2148 12.5423C69.3237 11.9732 69.3594 11.1286 69.3037 10.4364C69.1664 8.73134 68.2118 3.58544 67.932 3.04272C67.558 2.31694 66.8861 1.98376 65.8308 2.00061C65.3361 2.00858 52.4172 4.23722 37.1221 6.95321ZM64.3323 8.49082C64.7262 10.7289 64.7598 11.2593 64.5549 11.9941C64.3302 12.7993 63.5205 13.7787 62.7558 14.1701C62.3601 14.3726 55.053 15.7247 38.8034 18.6024C25.9429 20.8798 15.1931 22.7426 14.9153 22.7417C14.2642 22.7399 13.024 22.1502 12.5066 21.5964C12.2843 21.3584 11.9946 20.9051 11.8629 20.5889C11.6459 20.0675 11.0448 17.1335 11.0392 16.5686C11.0374 16.3885 11.4539 16.261 12.8734 16.0063C14.9721 15.6299 18.1837 15.0633 26.7031 13.5663C30.0012 12.9869 33.2394 12.4129 33.899 12.2909C34.5586 12.1689 36.4475 11.8311 38.0966 11.5401C39.7457 11.2492 44.1644 10.4676 47.916 9.80309C51.6676 9.13868 55.884 8.39319 57.2857 8.14665C58.6874 7.89996 60.7112 7.53685 61.7831 7.33965C62.855 7.14229 63.8061 6.97382 63.8965 6.96495C63.9905 6.95577 64.177 7.6083 64.3323 8.49082ZM59.7005 25.1875C59.6474 28.1866 59.5644 31.165 59.5161 31.806L59.4283 32.9718H40.4796C24.2986 32.9718 21.531 32.941 21.531 32.7603C21.531 32.644 21.0318 31.2733 20.4216 29.7143C19.8115 28.1553 19.331 26.8598 19.354 26.8355C19.3898 26.7973 26.1279 25.5837 33.3743 24.3101C34.5699 24.1 40.81 22.9914 47.2414 21.8467C53.6727 20.702 59.1287 19.7584 59.366 19.7501L59.7972 19.7348L59.7005 25.1875ZM69.3538 39.6741C69.3538 40.7958 69.2751 42.0273 69.1787 42.411C68.9489 43.3271 67.74 44.6045 66.8802 44.8397C66.4588 44.9551 59.1506 45.0037 42.2942 45.0032L18.3079 45.0025L17.5583 44.647C15.8729 43.8475 15.4984 43.0234 15.4146 39.9288L15.3524 37.6349H42.3531H69.3538V39.6741ZM62.9075 49.8566C62.9075 49.96 61.8181 55.5109 60.4864 62.1918L58.0652 74.3389L42.3915 74.3007L26.7178 74.2623L24.2817 62.0782C22.9417 55.377 21.8422 49.8435 21.8382 49.7813C21.8341 49.7192 31.0731 49.6685 42.3692 49.6685C58.6998 49.6685 62.9075 49.707 62.9075 49.8566Z" fill="#33D799"/>
</svg>
