<svg width="80" height="80" viewBox="0 0 80 80" fill="none" xmlns="http://www.w3.org/2000/svg">
<path fill-rule="evenodd" clip-rule="evenodd" d="M38.2785 1.30639C37.6636 1.62586 37.3017 2.07816 35.2496 5.09268C33.9677 6.97568 31.276 10.918 29.2679 13.8535C17.8321 30.5704 12.4275 40.8713 11.1855 48.3173C10.8863 50.1106 10.9579 53.6141 11.3364 55.7133C12.9735 64.7907 18.8514 72.3586 27.3367 76.3141C32.5012 78.7217 38.3133 79.5366 44.021 78.6538C54.0109 77.1088 62.7578 70.0585 66.2831 60.7102C67.5364 57.3871 68 54.8229 68 51.2147C68 49.0563 67.9395 48.3568 67.6387 47.0365C66.2557 40.9668 62.1685 32.7447 55.0475 21.707C53.9923 20.0715 50.5207 14.913 47.3326 10.2436C42.8429 3.66792 41.4096 1.6771 40.9744 1.41298C40.1343 0.902733 39.1317 0.863084 38.2785 1.30639ZM44.7533 16.3315C50.2799 24.521 51.2968 26.083 53.91 30.3992C58.4784 37.9448 60.9465 43.1857 62.1325 47.8598C62.543 49.4778 62.4977 53.294 62.0431 55.3911C60.2685 63.5768 54.4984 69.9562 46.6595 72.399C40.8549 74.208 34.7371 73.7707 29.3543 71.1619C22.2359 67.712 17.6765 61.3573 16.6948 53.5178C16.1514 49.1768 17.2712 44.988 20.8577 37.9477C22.4901 34.7431 25.1829 30.1105 27.7715 26.0531C29.4403 23.4375 39.4137 8.74493 39.5204 8.74493C39.5825 8.74493 41.9374 12.159 44.7533 16.3315ZM55.2182 49.1667C53.9881 49.6509 53.438 50.5242 53.2558 52.2822C52.8333 56.3608 50.4701 60.0984 46.8762 62.372C45.5029 63.2407 44.9523 64.0078 44.9523 65.0521C44.9523 67.2944 47.1877 68.5814 49.236 67.5182C52.7308 65.7044 56.2154 61.6611 57.6785 57.7218C58.6311 55.1572 59.0693 51.5447 58.5473 50.559C57.9254 49.3846 56.3445 48.7234 55.2182 49.1667Z" fill="#33D799"/>
</svg>
