<svg width="52" height="85" viewBox="0 0 52 85" fill="none" xmlns="http://www.w3.org/2000/svg">
<path fill-rule="evenodd" clip-rule="evenodd" d="M18.413 0.261956C17.06 0.674958 15.8486 1.61148 15.0934 2.82821C14.6871 3.4827 14.2958 4.94707 14.2958 5.81279V6.58943L12.6656 6.68417C6.95529 7.01606 2.16577 10.7497 0.46683 16.1942L0 17.6899V45.8605V74.031L0.46683 75.5267C1.80997 79.8311 5.20017 83.2009 9.53055 84.536L11.0354 85H26H40.9646L42.4695 84.536C47.9983 82.8313 51.9186 77.8166 51.9809 72.369C51.9978 70.8902 51.9564 70.637 51.6032 70.0726C51.385 69.7236 50.9013 69.2375 50.5286 68.9923C49.964 68.6209 49.6652 68.5464 48.7396 68.5464C47.8139 68.5464 47.5151 68.6209 46.9505 68.9923C45.97 69.6374 45.5864 70.3618 45.3865 71.9468C44.9869 75.1146 43.479 77.132 40.8223 78.0534C40.0203 78.3317 39.0017 78.3521 25.9164 78.3521H11.8714L10.9096 77.966C9.05134 77.2203 7.64433 75.7574 6.98857 73.8895C6.70415 73.0795 6.6881 71.5822 6.6881 45.8605C6.6881 20.1387 6.70415 18.6414 6.98857 17.8314C7.64734 15.955 9.07057 14.4803 10.9096 13.7687C11.7538 13.4419 12.2902 13.3846 15.299 13.2995C18.5267 13.2083 18.764 13.1797 19.3649 12.8082C19.716 12.5913 20.2051 12.1107 20.4517 11.7404C20.8721 11.1093 20.904 10.9277 20.9585 8.85238L21.0167 6.6378H26H30.9833L31.0415 8.85238C31.096 10.9277 31.1279 11.1093 31.5483 11.7404C31.7949 12.1107 32.284 12.5913 32.6351 12.8082C33.236 13.1797 33.4733 13.2083 36.701 13.2995C39.7098 13.3846 40.2462 13.4419 41.0904 13.7687C42.8773 14.4602 44.1736 15.7582 44.9437 17.6271L45.3119 18.5209L45.3955 37.3013L45.4791 56.0816L45.8759 56.716C46.0941 57.065 46.5778 57.5511 46.9505 57.7963C47.5131 58.1664 47.8149 58.2422 48.7273 58.2422C50.0444 58.2422 50.8583 57.8207 51.5514 56.7796L52 56.1059V36.8979V17.6899L51.5332 16.1942C49.8342 10.7497 45.0447 7.01606 39.3344 6.68417L37.7042 6.58943V5.81279C37.7042 4.25236 36.9753 2.58723 35.8414 1.55713C34.166 0.0352628 33.8634 -0.0122698 25.9278 0.00152465C20.4773 0.0108317 19.0763 0.0593614 18.413 0.261956ZM18.3923 31.2419C16.2772 34.9993 14.4583 38.3067 14.3503 38.5917C14.0216 39.4591 14.0962 40.2563 14.5941 41.204C14.971 41.9211 15.2295 42.1781 15.951 42.5527L16.842 43.0154H20.5014C22.514 43.0154 24.1603 43.0714 24.1598 43.14C24.1593 43.2087 23.1435 46.0581 21.9025 49.4723C20.6616 52.8867 19.6463 55.7731 19.6463 55.8867C19.6463 56.5068 20.7097 56.8306 21.4309 56.43C21.9898 56.1194 37.7023 38.1903 37.9883 37.5369C38.4382 36.5086 37.9558 35.0514 36.9819 34.4974C36.7284 34.3532 35.3142 34.2647 32.3403 34.2069L28.0633 34.1238L31.035 29.3872C32.6694 26.782 34.0108 24.5944 34.0162 24.5259C34.0214 24.4574 31.3734 24.4032 28.1318 24.4059L22.2379 24.4104L18.3923 31.2419Z" fill="#33D799"/>
<path d="M13.3029 71C13.2114 71 13.1291 70.968 13.056 70.904C12.992 70.8309 12.96 70.7486 12.96 70.6571V61.7429C12.96 61.6423 12.992 61.56 13.056 61.496C13.1291 61.432 13.2114 61.4 13.3029 61.4H15.1131C15.2137 61.4 15.296 61.432 15.36 61.496C15.424 61.56 15.456 61.6423 15.456 61.7429V68.9291H19.6114C19.712 68.9291 19.7943 68.9657 19.8583 69.0389C19.9223 69.1029 19.9543 69.1851 19.9543 69.2857V70.6571C19.9543 70.7486 19.9223 70.8309 19.8583 70.904C19.7943 70.968 19.712 71 19.6114 71H13.3029ZM24.9448 71.1371C23.6556 71.1371 22.6408 70.8217 21.9002 70.1909C21.1596 69.56 20.7665 68.632 20.7208 67.4069C20.7116 67.1417 20.7071 66.7486 20.7071 66.2274C20.7071 65.6971 20.7116 65.2994 20.7208 65.0343C20.7665 63.8274 21.1642 62.8994 21.9139 62.2503C22.6728 61.592 23.6831 61.2629 24.9448 61.2629C26.2065 61.2629 27.2168 61.592 27.9756 62.2503C28.7345 62.8994 29.1322 63.8274 29.1688 65.0343C29.1871 65.5646 29.1962 65.9623 29.1962 66.2274C29.1962 66.4834 29.1871 66.8766 29.1688 67.4069C29.1231 68.632 28.7299 69.56 27.9894 70.1909C27.2488 70.8217 26.2339 71.1371 24.9448 71.1371ZM24.9448 69.1623C25.4476 69.1623 25.8454 69.0114 26.1379 68.7097C26.4396 68.408 26.5996 67.9463 26.6179 67.3246C26.6362 66.7943 26.6454 66.4194 26.6454 66.2C26.6454 65.9623 26.6362 65.5874 26.6179 65.0754C26.5996 64.4537 26.4396 63.992 26.1379 63.6903C25.8362 63.3886 25.4385 63.2377 24.9448 63.2377C24.4511 63.2377 24.0534 63.3886 23.7516 63.6903C23.4591 63.992 23.2991 64.4537 23.2716 65.0754C23.2625 65.3314 23.2579 65.7063 23.2579 66.2C23.2579 66.6846 23.2625 67.0594 23.2716 67.3246C23.2991 67.9463 23.4591 68.408 23.7516 68.7097C24.0442 69.0114 24.4419 69.1623 24.9448 69.1623ZM32.2147 71C32.0593 71 31.9359 70.9589 31.8445 70.8766C31.753 70.7851 31.6982 70.6754 31.6799 70.5474L30.185 61.784C30.1759 61.7566 30.1713 61.7246 30.1713 61.688C30.1713 61.6149 30.1987 61.5509 30.2536 61.496C30.3176 61.432 30.3862 61.4 30.4593 61.4H32.1599C32.4159 61.4 32.5576 61.5006 32.585 61.7017L33.4765 67.0503L34.4639 63.896C34.5645 63.6491 34.7153 63.5257 34.9165 63.5257H35.9039C36.1325 63.5257 36.2833 63.6491 36.3565 63.896L37.3439 67.0503L38.2353 61.7017C38.2627 61.5006 38.4045 61.4 38.6605 61.4H40.361C40.4433 61.4 40.5119 61.432 40.5667 61.496C40.6307 61.5509 40.6627 61.6149 40.6627 61.688L40.649 61.784L39.1542 70.5474C39.1359 70.6754 39.0765 70.7851 38.9759 70.8766C38.8845 70.9589 38.7656 71 38.6193 71H37.3165C37.1702 71 37.0559 70.9634 36.9736 70.8903C36.8913 70.8171 36.8319 70.7349 36.7953 70.6434L35.4102 66.7211L34.025 70.6434C33.9427 70.8811 33.7736 71 33.5176 71H32.2147Z" fill="#33D799"/>
</svg>
